<svg width="120" height="65" viewBox="0 0 120 65" fill="none" xmlns="http://www.w3.org/2000/svg">
<rect width="120" height="65" rx="5" fill="#00A092"/>
<path d="M49.192 34.936C49.192 35.908 48.832 36.736 48.112 37.42C47.404 38.092 46.372 38.5 45.016 38.644V40.66H43.54V38.662C42.652 38.602 41.812 38.44 41.02 38.176C40.228 37.912 39.598 37.576 39.13 37.168L39.94 35.35C40.384 35.71 40.924 36.016 41.56 36.268C42.196 36.508 42.856 36.658 43.54 36.718V33.118C42.688 32.914 41.974 32.692 41.398 32.452C40.834 32.2 40.36 31.84 39.976 31.372C39.592 30.892 39.4 30.262 39.4 29.482C39.4 28.51 39.754 27.682 40.462 26.998C41.17 26.314 42.196 25.906 43.54 25.774V23.74H45.016V25.738C45.688 25.774 46.342 25.888 46.978 26.08C47.626 26.272 48.19 26.524 48.67 26.836L47.932 28.654C47.02 28.126 46.048 27.802 45.016 27.682V31.318C45.88 31.522 46.594 31.744 47.158 31.984C47.734 32.224 48.214 32.584 48.598 33.064C48.994 33.532 49.192 34.156 49.192 34.936ZM41.722 29.374C41.722 29.77 41.878 30.088 42.19 30.328C42.502 30.568 42.952 30.772 43.54 30.94V27.736C42.928 27.832 42.472 28.024 42.172 28.312C41.872 28.6 41.722 28.954 41.722 29.374ZM45.016 36.682C45.652 36.586 46.12 36.4 46.42 36.124C46.732 35.848 46.888 35.506 46.888 35.098C46.888 34.69 46.726 34.366 46.402 34.126C46.078 33.874 45.616 33.664 45.016 33.496V36.682ZM54.7925 25.9V38.5H52.4525V27.862H49.7885V25.9H54.7925ZM62.548 38.68C61.54 38.68 60.64 38.428 59.848 37.924C59.056 37.408 58.432 36.664 57.976 35.692C57.52 34.708 57.292 33.544 57.292 32.2C57.292 30.856 57.52 29.698 57.976 28.726C58.432 27.742 59.056 26.998 59.848 26.494C60.64 25.978 61.54 25.72 62.548 25.72C63.556 25.72 64.456 25.978 65.248 26.494C66.052 26.998 66.682 27.742 67.138 28.726C67.594 29.698 67.822 30.856 67.822 32.2C67.822 33.544 67.594 34.708 67.138 35.692C66.682 36.664 66.052 37.408 65.248 37.924C64.456 38.428 63.556 38.68 62.548 38.68ZM62.548 36.646C63.448 36.646 64.156 36.274 64.672 35.53C65.2 34.786 65.464 33.676 65.464 32.2C65.464 30.724 65.2 29.614 64.672 28.87C64.156 28.126 63.448 27.754 62.548 27.754C61.66 27.754 60.952 28.126 60.424 28.87C59.908 29.614 59.65 30.724 59.65 32.2C59.65 33.676 59.908 34.786 60.424 35.53C60.952 36.274 61.66 36.646 62.548 36.646ZM74.6593 38.68C73.6513 38.68 72.7513 38.428 71.9593 37.924C71.1673 37.408 70.5433 36.664 70.0873 35.692C69.6313 34.708 69.4033 33.544 69.4033 32.2C69.4033 30.856 69.6313 29.698 70.0873 28.726C70.5433 27.742 71.1673 26.998 71.9593 26.494C72.7513 25.978 73.6513 25.72 74.6593 25.72C75.6673 25.72 76.5673 25.978 77.3593 26.494C78.1633 26.998 78.7933 27.742 79.2493 28.726C79.7053 29.698 79.9333 30.856 79.9333 32.2C79.9333 33.544 79.7053 34.708 79.2493 35.692C78.7933 36.664 78.1633 37.408 77.3593 37.924C76.5673 38.428 75.6673 38.68 74.6593 38.68ZM74.6593 36.646C75.5593 36.646 76.2673 36.274 76.7833 35.53C77.3113 34.786 77.5753 33.676 77.5753 32.2C77.5753 30.724 77.3113 29.614 76.7833 28.87C76.2673 28.126 75.5593 27.754 74.6593 27.754C73.7713 27.754 73.0633 28.126 72.5353 28.87C72.0193 29.614 71.7613 30.724 71.7613 32.2C71.7613 33.676 72.0193 34.786 72.5353 35.53C73.0633 36.274 73.7713 36.646 74.6593 36.646Z" fill="white"/>
</svg>
